inDegrees=no
num_controls=7
num_derivatives=13
num_iterations=99
num_multipliers=7
num_parameters=0
num_slacks=7
num_states=26
objective=0.444937
objective_accelerations=0.057866
objective_balance=0.003424
objective_effort=0.023162
objective_height=0.354995
objective_ligament=0.005489
solver_duration=1421.042850
status=Solve_Succeeded
success=true
DataType=double
version=3
OpenSimVersion=4.5
endheader
time	/jointset/ground_pelvis/pelvis_tilt/value	/jointset/ground_pelvis/pelvis_tx/value	/jointset/ground_pelvis/pelvis_ty/value	/jointset/hip_l/hip_flexion_l/value	/jointset/hip_l/hip_adduction_l/value	/jointset/hip_l/hip_rotation_l/value	/jointset/back/lumbar_extension/value	/jointset/patellofemoral_l/patellar_flexion_l/value	/jointset/knee_l/knee_flexion_l/value	/jointset/knee_l/knee_adduction_l/value	/jointset/knee_l/knee_rotation_l/value	/jointset/ankle_l/ankle_angle_l/value	/jointset/subtalar_l/subtalar_angle_l/value	/jointset/ground_pelvis/pelvis_tilt/speed	/jointset/ground_pelvis/pelvis_tx/speed	/jointset/ground_pelvis/pelvis_ty/speed	/jointset/hip_l/hip_flexion_l/speed	/jointset/hip_l/hip_adduction_l/speed	/jointset/hip_l/hip_rotation_l/speed	/jointset/back/lumbar_extension/speed	/jointset/patellofemoral_l/patellar_flexion_l/speed	/jointset/knee_l/knee_flexion_l/speed	/jointset/knee_l/knee_adduction_l/speed	/jointset/knee_l/knee_rotation_l/speed	/jointset/ankle_l/ankle_angle_l/speed	/jointset/subtalar_l/subtalar_angle_l/speed	/forceset/tau_hip_flexion_l	/forceset/tau_hip_adduction_l	/forceset/tau_hip_rotation_l	/forceset/tau_knee_flexion_l	/forceset/tau_ankle_angle_l	/forceset/tau_subtalar_angle_l	/forceset/tau_lumbar_extension	lambda_cid13_p0	lambda_cid13_p1	lambda_cid13_p2	lambda_cid13_p3	lambda_cid13_p4	lambda_cid13_p5	lambda_cid14_p0	/jointset/ground_pelvis/pelvis_tilt/accel	/jointset/ground_pelvis/pelvis_tx/accel	/jointset/ground_pelvis/pelvis_ty/accel	/jointset/hip_l/hip_flexion_l/accel	/jointset/hip_l/hip_adduction_l/accel	/jointset/hip_l/hip_rotation_l/accel	/jointset/back/lumbar_extension/accel	/jointset/patellofemoral_l/patellar_flexion_l/accel	/jointset/knee_l/knee_flexion_l/accel	/jointset/knee_l/knee_adduction_l/accel	/jointset/knee_l/knee_rotation_l/accel	/jointset/ankle_l/ankle_angle_l/accel	/jointset/subtalar_l/subtalar_angle_l/accel	gamma_cid13_p0	gamma_cid13_p1	gamma_cid13_p2	gamma_cid13_p3	gamma_cid13_p4	gamma_cid13_p5	gamma_cid14_p0
1.5	-0.37096460354092	-0.02209765705148504	0.7607197957444021	1.110612817859557	-0.4353673372419488	-0.2095962509722691	-0.2247335446149588	0.809764902942429	0.8097649029424346	-0.1307473829551044	-0.1450724169922975	0.1326352520696115	-0.01730245053318496	0.6840605193993119	0.2735386218215053	0.5384660222999774	-2.47595465034444	0.2097025691199855	-0.720075945811821	0.3162214117680186	-2.02946864326523	-2.029468643264953	-0.132384176321295	0.1382031137671415	-0.4045220721366968	0.03360608702698753	-0.1766266365684299	0.03639726594260907	-0.008015173873053236	-0.2000205095672204	0.03797892485761341	0.03842961952822456	0.1694856689736832	-19.96360802075538	-16.010165402091	5.43270736384558	-6.401029396859577	-519.3817382395398	-56.28367418574975	-24.70597514338731	0.6916499261403726	0.682994469998671	-0.5310074738075741	-1.271904130281019	0.71318075887884	-0.1721905386715853	1.438486440186973	-1.322158044853678	-1.322158044853662	0.1254277232739201	0.2337574012119678	-0.5451128527227126	0.4934736590200581	4.988673054119486e-07	5.009354407912431e-07	-2.904212686706361e-06	-1.043035820816744e-07	7.235107577409687e-07	-3.769279873320141e-08	4.644642436369977e-07
1.51	-0.3640894931169518	-0.01932836019652942	0.7660768262887376	1.085791434466979	-0.4332361929714595	-0.2168043875141461	-0.2215006965922269	0.7894065970208191	0.7894065970208205	-0.1320679718283619	-0.1436801210871187	0.1285631084403533	-0.01694347390626078	0.6908592064618335	0.2802872425816924	0.5328246119172739	-2.487973219060846	0.216501558970448	-0.721434468003512	0.3303158288938451	-2.041897894649501	-2.041897894649325	-0.1317393447959566	0.1402506138921079	-0.4098251834701126	0.03819626374812874	-0.1704942526620119	0.0354333372874052	-0.007667115210193488	-0.1972922093279155	0.0382348505660686	0.03774164141769162	0.1645236022140084	-19.66456923141592	-15.77764386832714	5.411522592367616	-6.336141097217507	-515.3496313020195	-56.52543251946635	-25.62699323010034	0.6586456357566669	0.6658005983563116	-0.5979118090735976	-1.114481659336068	0.6595933671739704	-0.09978688446185315	1.390064766069795	-1.159191717681242	-1.159191717696462	0.0333070206649146	0.1890804758333928	-0.5106518562056717	0.4428278214555856	4.372768302199769e-07	1.004570437861626e-06	-2.041398305600438e-06	6.587148240007806e-08	6.327830541772078e-07	9.260043185804899e-08	4.218967260397697e-07
1.52	-0.3571494623144714	-0.0164925761901064	0.7713740019315319	1.060860335703832	-0.4310377917486578	-0.2240225300429467	-0.2181278753147791	0.76893282197887	0.7689328219788711	-0.1333822531556542	-0.1422675833491635	0.1244403853812497	-0.01653838788356634	0.6970445951023059	0.2868360521149831	0.5264950419916881	-2.497897724457878	0.2231539595826717	-0.722077143196963	0.3442160627112462	-2.05256246733247	-2.052562467332396	-0.1311226671305736	0.1422514803248539	-0.4146379581057143	0.04282796618104853	-0.1643618687555818	0.03446940863220563	-0.007319056547253349	-0.1945639090886166	0.03849077627452325	0.03705366330716311	0.1595615354543436	-19.36862488435568	-15.54698621387145	5.393383994380049	-6.299627874033766	-511.3807411811042	-56.81544333637461	-26.54734566732532	0.5689902417304794	0.6430322246193833	-0.6686393823840741	-0.8530914664062804	0.6838629112310483	-0.029021139023595	1.399649778501881	-0.9692223045932842	-0.9692223045932798	0.119796951282835	0.2244306627678683	-0.4470455131598705	0.5017788013757826	4.152355273103795e-07	1.295273841614587e-06	-1.636021260629863e-06	1.543438036055627e-07	6.076668944238299e-07	1.900521552777529e-07	4.066967367252201e-07
1.53	-0.3501506584604587	-0.01359245438021565	0.7766045351386668	1.035840387046845	-0.4287737060258138	-0.2312438424767124	-0.2146173311684499	0.7483610536923719	0.7483610536923776	-0.1346905686189793	-0.1408354403311545	0.1202717873938362	-0.01608699586889143	0.7026048099086361	0.2931389242019076	0.519503605448901	-2.50572670494436	0.2296371243081453	-0.7220967123334782	0.3578372532263775	-2.061497332680517	-2.061497332680565	-0.1305251909661697	0.1441558359960175	-0.4190114133858442	0.04745073784320827	-0.1582652756099899	0.03356237357189387	-0.006962877384327452	-0.1917223242096605	0.03838232132540557	0.03615666417684948	0.1545606442045131	-19.20842073908913	-15.19582929609506	5.349232124487884	-5.998667686741323	-507.5519380450661	-56.93344128388939	-27.46689876111571	0.5328533014808077	0.6165382310533493	-0.7304596606397975	-0.692974723085157	0.6266795780810075	0.02526413865816268	1.335026688748247	-0.8116256578342229	-0.8116256578524583	0.03217160534668596	0.1698636134096362	-0.4219202956421623	0.4425540733488984	4.352152199508044e-07	1.35973742746779e-06	-1.716671385303091e-06	1.56006960080014e-07	6.522629999689831e-07	2.526097773276891e-07	4.205747462110159e-07
1.54	-0.3430995892181062	-0.0106307791433908	0.7817619412062908	1.010753113908329	-0.4264455613907407	-0.2384626128139161	-0.2109722405168236	0.7277087353508113	0.7277087353508157	-0.1359924195894014	-0.1393849686376028	0.1160615699015809	-0.01558937059265241	0.7074976727708318	0.2991467375018039	0.5118696140895553	-2.511362620763482	0.2359657420286385	-0.7215687238850464	0.3711253637706912	-2.068672478345515	-2.068672478345684	-0.1298297685486636	0.1459172154319441	-0.4229618590740784	0.05207461849388244	-0.1521686824643801	0.03265533851158964	-0.006606698221453377	-0.1888807393306991	0.03827386637628896	0.03525966504654598	0.1495597529546966	-19.05024360180148	-14.84835842946858	5.310284811292835	-5.735082806828936	-503.7680865501239	-57.10277052589257	-28.38623724911687	0.435519852903571	0.5840204672137572	-0.797150345695821	-0.4144785329343812	0.6529535102349865	0.08049037796576923	1.333033784338334	-0.6172783679831864	-0.6172783679832076	0.1393862019032825	0.1958354157204684	-0.3624435947806928	0.502000599078678	4.416879496981094e-07	1.44984791560893e-06	-1.704894629590047e-06	1.701980475732235e-07	6.782082619504633e-07	3.111904135854811e-07	4.256546050392179e-07
1.55	-0.3360028966191559	-0.007610554508275772	0.7868398917879733	0.985620327421858	-0.4240549770253491	-0.2456736774358463	-0.2071960855415151	0.7069935001141378	0.7069935001141351	-0.137286758389348	-0.1379177878322102	0.11181401046235	-0.01504554050955343	0.7117274079719771	0.3048429183402569	0.5036209843742855	-2.514826846951011	0.24211509123789	-0.7205356083965803	0.3840404073791066	-2.07406987060174	-2.074069870601904	-0.129041533732225	0.1475087686680094	-0.426472146412243	0.05668482385962825	-0.1461327413548238	0.03152192517516587	-0.006254860704679783	-0.1861618852248099	0.03813815172846751	0.03430109511712753	0.1445878641174367	-18.91926068794044	-14.46899977604628	5.265811572845021	-5.392798260980269	-500.220681713405	-57.25368777974187	-29.30654322903391	0.3996933735544302	0.5541691603723299	-0.853509937296658	-0.2572015795069579	0.5904995150083654	0.1313985281079878	1.260956062266788	-0.4553484537991299	-0.4553484537982699	0.04821799972955067	0.1389472921789692	-0.3335870438517366	0.439460414661871	4.325983091555163e-07	1.569508095516604e-06	-1.586626033431957e-06	1.988234903706538e-07	6.826645085216259e-07	3.651888705610201e-07	4.205974641967146e-07
1.56	-0.32886730806423	-0.004535017611133949	0.7918323979419323	0.9604639372899413	-0.4216039843901183	-0.2528710756241276	-0.203292736847488	0.686233415195023	0.6862334151950262	-0.1385732796654585	-0.1364350650915605	0.1075336950016333	-0.01445582239092918	0.7152768639665082	0.310209189907163	0.4947807285448432	-2.51608334985233	0.2480473959966695	-0.718835437155278	0.3965641075144708	-2.077642414832243	-2.077642414832402	-0.1282662637871715	0.1490256024892547	-0.429513063371103	0.06125222559894838	-0.140096800245264	0.03038851183873766	-0.005903023187714291	-0.1834430311189397	0.03800243708064133	0.03334252518769866	0.1396159752801831	-18.78956630046023	-14.09352123198788	5.226647798986143	-5.088970247215411	-496.7054977434089	-57.45208903493387	-30.22640775629731	0.29946401158068	0.5180386129044019	-0.9154755685302918	0.02706612430736849	0.6095446201405631	0.2139015285329981	1.254765089728084	-0.2523087628387632	-0.2523087628387648	0.1367932276262622	0.1808915327564834	-0.2685695189197221	0.493439873793559	4.044194566387038e-07	1.722145016364918e-06	-1.370213007080878e-06	2.505697331870501e-07	6.460155588488791e-07	4.048083797112784e-07	4.081395461823884e-07
1.57	-0.3216997462623783	-0.001407496555225106	0.7967336088668023	0.9353062413970296	-0.419094692490086	-0.2600492006145064	-0.1992661450186547	0.6654470870328941	0.6654470870329007	-0.1398512188892541	-0.1349382977304509	0.1032255486769574	-0.01382040851805838	0.7181146912502331	0.3152354776927436	0.4853725627603441	-2.515083852818232	0.2537687970119648	-0.7166841285114399	0.4086750184032848	-2.079311078239668	-2.079311078239801	-0.1273249672237451	0.1503140897442843	-0.4320306773696151	0.06582215732079261	-0.1339519611219017	0.02894853176630151	-0.005601656198657011	-0.1811225146207479	0.03833859089374778	0.03225139768680805	0.1345552538300001	-18.52972088638676	-13.68076600259833	5.178689738033865	-4.837469324255266	-493.4452739775219	-57.59724937548144	-31.13007291522128	0.2578067135314895	0.4860678542177909	-0.9667196735417379	0.1921784235607287	0.5469494497424155	0.2318957420557911	1.177368111073444	-0.07739901281509623	-0.07739901281116823	0.07259265289444401	0.1005371515963806	-0.230460720028182	0.4372851537355654	3.523790891541173e-07	1.916002863389029e-06	-1.031119442988564e-06	3.312169760271535e-07	5.579851138712462e-07	4.264542040799358e-07	3.864306567032837e-07
1.58	-0.3145074332623394	0.001768516177106129	0.8015380916158008	0.9101696978605783	-0.4165294842583981	-0.2672025824764968	-0.1951208212764102	0.6446534214600587	0.6446534214600815	-0.1411197861909489	-0.1334291035308766	0.09889480553635378	-0.01313959226149806	0.7202271036044909	0.3199075251916414	0.4754350933705583	-2.511852878560143	0.2592306623279982	-0.7138868114777407	0.4203104901967176	-2.079109896971923	-2.079109896972029	-0.126391879372575	0.1515109701881246	-0.4340324265565756	0.07033270233686602	-0.1278071219985238	0.02750855169386444	-0.0053002892094157	-0.1788019981225744	0.03867474470685001	0.03116027018591162	0.1294945323798336	-18.27807554408354	-13.2697019834879	5.134573877624019	-4.591654332232564	-490.3103840079028	-57.79618689959361	-32.01072556719584	0.1543810256872307	0.4471905555678796	-1.021336289587618	0.4733615691052929	0.5576374802881964	0.343103206505196	1.159677270651825	0.1216601721952824	0.1216601721952824	0.1351514851750194	0.1625701705186063	-0.1653965566093549	0.4815625326394154	3.079741893971149e-07	2.060979347151356e-06	-7.619468942657328e-07	3.904609968018881e-07	4.895928464744481e-07	4.427520671922894e-07	3.662747280725754e-07
1.59	-0.3072977348119901	0.004989381399998397	0.8062406301784943	0.8850768826265816	-0.4139108864891373	-0.2743253277836992	-0.1908615696845624	0.623871346703196	0.6238713467031957	-0.1423785139324162	-0.1319087594786585	0.0945467030280093	-0.01241381538043925	0.7215866795539062	0.3241960932001596	0.4649931520278266	-2.506322852983931	0.264441188736493	-0.7105628434772667	0.4314469958083371	-2.076978285544437	-2.076978285544476	-0.1253490069518698	0.1525364521873399	-0.4355003358843328	0.07481042505043056	-0.1217542064271256	0.02597026036734074	-0.005028250478502981	-0.1763964950548874	0.03885296135316194	0.02998097909332216	0.1244793422848172	-18.09330446279753	-12.80853314788739	5.082347925611472	-4.235703668506869	-487.3625593915812	-57.93288542937642	-32.862841941851	0.1078301950216481	0.4093637263478719	-1.067458532300458	0.6508936951996154	0.4953752677574461	0.3422518088159049	1.076712351684098	0.3078594624513676	0.3078594624615617	0.08989954018065309	0.06916532036292786	-0.1242547501406016	0.4287479663914962	2.739317101275475e-07	2.13961683791555e-06	-5.876671521157667e-07	4.206577876307665e-07	4.478523915087812e-07	4.517919828853737e-07	3.482263891646905e-07
